<svg xmlns="http://www.w3.org/2000/svg" viewBox="0 0 64 64">
  <defs>
    <linearGradient id="g" x1="0" x2="1" y1="0" y2="1">
      <stop offset="0" stop-color="#f59b4b"/>
      <stop offset="1" stop-color="#e46b34"/>
    </linearGradient>
  </defs>
  <rect width="64" height="64" rx="14" fill="url(#g)"/>
  <path d="M17 35c0-6 4.5-10 11-10 4 0 6 1 6 3 0 1.7-1.4 3-3.2 3-1.4 0-2.8-.8-3.4-1.8" stroke="#fff" stroke-width="4" fill="none" stroke-linecap="round"/>
  <circle cx="40" cy="30" r="2.5" fill="#fff"/>
  <path d="M36 38c1.5 2.5 3.7 4 6.5 4 4 0 7.5-3 7.5-7.5 0-4.2-3.2-7.5-7.5-7.5-1.1 0-2 .2-3 .7" stroke="#fff" stroke-width="4" fill="none" stroke-linecap="round"/>
</svg>
